<svg width="16" height="16" viewBox="0 0 16 16" fill="none" xmlns="http://www.w3.org/2000/svg">
<path fill-rule="evenodd" clip-rule="evenodd" d="M8.00008 14.6667C8.00008 14.6667 13.3334 10.6667 13.3334 6.66671C13.3334 5.25222 12.7715 3.89567 11.7713 2.89547C10.7711 1.89528 9.41457 1.33337 8.00008 1.33337C6.58559 1.33337 5.22904 1.89528 4.22885 2.89547C3.22865 3.89567 2.66675 5.25222 2.66675 6.66671C2.66675 10.6667 8.00008 14.6667 8.00008 14.6667ZM8 8C9.10457 8 10 7.10457 10 6C10 4.89543 9.10457 4 8 4C6.89543 4 6 4.89543 6 6C6 7.10457 6.89543 8 8 8Z" fill="#FD993A"/>
</svg>
