<svg width="16" height="16" viewBox="0 0 16 16" fill="none" xmlns="http://www.w3.org/2000/svg">
<g id="icon">
<g id="Vector">
<path fill-rule="evenodd" clip-rule="evenodd" d="M7.99935 0.833374C6.25045 0.833374 4.83268 2.25114 4.83268 4.00004C4.83268 5.74894 6.25045 7.16671 7.99935 7.16671C9.74825 7.16671 11.166 5.74894 11.166 4.00004C11.166 2.25114 9.74825 0.833374 7.99935 0.833374ZM5.83268 4.00004C5.83268 2.80342 6.80273 1.83337 7.99935 1.83337C9.19597 1.83337 10.166 2.80342 10.166 4.00004C10.166 5.19666 9.19597 6.16671 7.99935 6.16671C6.80273 6.16671 5.83268 5.19666 5.83268 4.00004Z" fill="white"/>
<path d="M11.9993 2.16671C11.7232 2.16671 11.4993 2.39056 11.4993 2.66671C11.4993 2.94285 11.7232 3.16671 11.9993 3.16671C12.917 3.16671 13.4993 3.77053 13.4993 4.33337C13.4993 4.89622 12.917 5.50004 11.9993 5.50004C11.7232 5.50004 11.4993 5.7239 11.4993 6.00004C11.4993 6.27618 11.7232 6.50004 11.9993 6.50004C13.2908 6.50004 14.4993 5.61148 14.4993 4.33337C14.4993 3.05527 13.2908 2.16671 11.9993 2.16671Z" fill="white"/>
<path d="M4.49935 2.66671C4.49935 2.39056 4.27549 2.16671 3.99935 2.16671C2.70787 2.16671 1.49935 3.05527 1.49935 4.33337C1.49935 5.61148 2.70787 6.50004 3.99935 6.50004C4.27549 6.50004 4.49935 6.27618 4.49935 6.00004C4.49935 5.7239 4.27549 5.50004 3.99935 5.50004C3.08169 5.50004 2.49935 4.89622 2.49935 4.33337C2.49935 3.77053 3.08169 3.16671 3.99935 3.16671C4.27549 3.16671 4.49935 2.94285 4.49935 2.66671Z" fill="white"/>
<path fill-rule="evenodd" clip-rule="evenodd" d="M7.99935 8.16671C6.80983 8.16671 5.71032 8.48723 4.89357 9.03173C4.08032 9.5739 3.49935 10.3778 3.49935 11.3334C3.49935 12.2889 4.08032 13.0929 4.89357 13.635C5.71032 14.1795 6.80983 14.5 7.99935 14.5C9.18886 14.5 10.2884 14.1795 11.1051 13.635C11.9184 13.0929 12.4993 12.2889 12.4993 11.3334C12.4993 10.3778 11.9184 9.5739 11.1051 9.03173C10.2884 8.48723 9.18886 8.16671 7.99935 8.16671ZM4.49935 11.3334C4.49935 10.8162 4.81381 10.2868 5.44827 9.86378C6.07924 9.44313 6.97972 9.16671 7.99935 9.16671C9.01897 9.16671 9.91946 9.44313 10.5504 9.86378C11.1849 10.2868 11.4993 10.8162 11.4993 11.3334C11.4993 11.8506 11.1849 12.38 10.5504 12.803C9.91946 13.2236 9.01897 13.5 7.99935 13.5C6.97972 13.5 6.07924 13.2236 5.44827 12.803C4.81381 12.38 4.49935 11.8506 4.49935 11.3334Z" fill="white"/>
<path d="M12.8443 9.22627C12.9034 8.95654 13.1701 8.78583 13.4398 8.84498C14.081 8.9856 14.6589 9.23961 15.0879 9.59066C15.5165 9.9414 15.8327 10.4235 15.8327 11C15.8327 11.5765 15.5165 12.0587 15.0879 12.4094C14.6589 12.7605 14.081 13.0145 13.4398 13.1551C13.1701 13.2143 12.9034 13.0435 12.8443 12.7738C12.7851 12.5041 12.9558 12.2375 13.2256 12.1783C13.7538 12.0625 14.176 11.8635 14.4546 11.6355C14.7336 11.4072 14.8327 11.1842 14.8327 11C14.8327 10.8158 14.7336 10.5929 14.4546 10.3646C14.176 10.1366 13.7538 9.93761 13.2256 9.82177C12.9558 9.76262 12.7851 9.49601 12.8443 9.22627Z" fill="white"/>
<path d="M2.55891 8.84498C2.82865 8.78583 3.09526 8.95654 3.15441 9.22627C3.21356 9.49601 3.04285 9.76262 2.77312 9.82177C2.24487 9.93761 1.82272 10.1366 1.5441 10.3646C1.2651 10.5929 1.16602 10.8158 1.16602 11C1.16602 11.1842 1.2651 11.4072 1.5441 11.6355C1.82272 11.8635 2.24487 12.0625 2.77312 12.1783C3.04285 12.2375 3.21356 12.5041 3.15441 12.7738C3.09526 13.0435 2.82865 13.2143 2.55891 13.1551C1.91766 13.0145 1.33982 12.7605 0.910811 12.4094C0.482181 12.0587 0.166016 11.5765 0.166016 11C0.166016 10.4235 0.482181 9.9414 0.910811 9.59066C1.33982 9.23961 1.91766 8.9856 2.55891 8.84498Z" fill="white"/>
</g>
</g>
</svg>
